<svg xmlns="http://www.w3.org/2000/svg" width="16.668" height="15" viewBox="0 0 16.668 15">
  <path id="Path_122" data-name="Path 122" d="M13.668,3a4.926,4.926,0,0,0-3.334,1.283A4.926,4.926,0,0,0,7,3,5,5,0,0,0,2,8c0,4.459,7.067,9.318,7.867,9.859a.833.833,0,0,0,.925,0c.808-.542,7.876-5.4,7.876-9.859A5,5,0,0,0,13.668,3ZM10.334,16.151C8.117,14.568,3.667,10.817,3.667,8a3.321,3.321,0,0,1,6-1.975.833.833,0,0,0,1.333,0A3.321,3.321,0,0,1,17,8C17,10.817,12.551,14.568,10.334,16.151Z" transform="translate(-2 -3)" fill="#4c4c4c"/>
</svg>
